<?xml version="1.0" encoding="utf-8"?>
<!-- Generator: Adobe Illustrator 21.0.2, SVG Export Plug-In . SVG Version: 6.00 Build 0)  -->
<svg version="1.1" id="Layer_1" xmlns="http://www.w3.org/2000/svg" xmlns:xlink="http://www.w3.org/1999/xlink" x="0px" y="0px"
	 viewBox="0 0 100 100" style="enable-background:new 0 0 100 100;" xml:space="preserve">
<g>
	<path d="M85.7,40.2c-4.1-4.3-8.1-6.2-8.8-6.5c-1.5-0.8-3.1-1.3-5-1.5c-2.8-0.2-5.5,0.6-7.8,1.5c-5.1,1.9-9.6,2.7-12.2,3
		c0.1-2.1,0.9-6.5,4.6-7.7c7.7-2.4,7.8-10.8,7.8-11.2c0-1.1-0.9-2-2-2c0,0,0,0,0,0c-1.1,0-2,0.9-2,2c0,0.2-0.1,5.8-5,7.4
		c-6.2,1.9-7.2,8.7-7.4,11.5c-2.5-0.3-7.1-1.1-12.2-3c-2.3-0.9-4.9-1.7-7.8-1.5c-1.9,0.2-3.6,0.6-5,1.5c-0.7,0.3-4.7,2.3-8.8,6.5
		C6,48.8,2.9,61.3,6.5,71.2c0.7,1.8,1.2,3,2.6,5.1c1.5,2.3,3.6,4.3,6.2,5.9l0.2,0.1c3.2,2,7.5,2.3,12.1,0.7c3.4-1.2,6.6-3.3,9.5-6.2
		c0.1-0.1,3-3,5.8-7.6c0.6-0.3,2.7-1.2,7.2-1.1h0c4.6-0.1,6.7,0.8,7.2,1.1c2.8,4.6,5.7,7.5,5.8,7.6c2.9,3,6.1,5.1,9.5,6.2
		c2,0.7,3.9,1,5.8,1c2.3,0,4.5-0.6,6.3-1.7l0.2-0.1c2.6-1.7,4.7-3.7,6.2-5.9c1.4-2.1,1.9-3.3,2.6-5.1C97.1,61.3,94,48.8,85.7,40.2z
		 M89.7,69.9c-0.6,1.6-1,2.5-2.2,4.3c-1.2,1.8-2.8,3.3-4.9,4.7L82.5,79c-2.9,1.9-6.7,1-8.7,0.3c-2.8-1-5.5-2.8-8-5.3
		c0,0-2.8-2.8-5.4-7.2l-0.2-0.3l-0.2-0.2c-0.4-0.4-2.8-2.2-9.6-2.2c-0.2,0-0.3,0-0.5,0c-7.2-0.1-9.6,1.8-10.1,2.2l-0.2,0.2l-0.2,0.3
		c-2.6,4.4-5.4,7.2-5.4,7.2c-2.5,2.5-5.2,4.3-8,5.3c-2,0.7-5.7,1.6-8.7-0.3l-0.2-0.1c-2.1-1.4-3.7-2.9-4.9-4.7
		c-1.2-1.8-1.6-2.7-2.2-4.3C7.1,61.3,9.9,50.5,17.1,43c3.8-4,7.6-5.7,7.6-5.7l0.2-0.1c1-0.5,2.1-0.9,3.5-1c2-0.2,4.1,0.5,6,1.2
		c8.3,3.2,15.3,3.5,15.6,3.5l0.1,0l0.1,0c0.3,0,7.2-0.3,15.6-3.5c1.9-0.7,4-1.4,6-1.2c1.3,0.1,2.5,0.4,3.5,1l0.2,0.1
		c0,0,3.8,1.7,7.6,5.7C90.1,50.5,92.9,61.3,89.7,69.9z"/>
	<path d="M31.7,58.1h-5v-5c0-1.1-0.9-2-2-2s-2,0.9-2,2v5h-5c-1.1,0-2,0.9-2,2c0,1.1,0.9,2,2,2h5v5c0,1.1,0.9,2,2,2s2-0.9,2-2v-5h5
		c1.1,0,2-0.9,2-2C33.7,59,32.9,58.1,31.7,58.1z"/>
	<path d="M75.3,51c-5,0-9,4-9,9s4,9,9,9c5,0,9-4,9-9S80.2,51,75.3,51z M75.3,65c-2.8,0-5-2.2-5-5s2.2-5,5-5s5,2.2,5,5S78,65,75.3,65
		z"/>
</g>
</svg>
